<svg width="1724" height="907" viewBox="0 0 1724 907" fill="none" xmlns="http://www.w3.org/2000/svg">
<g clip-path="url(#clip0_1086_26250)">
<path d="M787.092 485.134L778.835 504.999C778.313 506.798 777.515 508.357 776.442 509.672C774.817 511.257 772.864 512.05 770.579 512.05C768.295 512.05 766.355 511.257 764.759 509.672C763.658 508.357 762.845 506.798 762.323 504.999L746.843 467.727C746.429 466.518 746.086 465.174 745.81 463.697C745.81 461.468 746.615 459.568 748.225 457.996C749.836 456.424 751.782 455.639 754.066 455.639C756.351 455.639 758.304 456.418 759.929 457.976C761.003 459.318 761.786 460.89 762.282 462.69H762.323L770.579 481.829L778.835 462.69H778.878C778.878 462.664 778.89 462.623 778.918 462.568C779.138 460.822 779.923 459.292 781.271 457.976C782.868 456.418 784.807 455.639 787.092 455.639C789.376 455.639 791.261 456.377 792.747 457.855C794.206 459.332 795.045 460.904 795.265 462.568C795.293 462.623 795.308 462.664 795.308 462.69H795.348L803.605 481.829L811.861 462.69H811.903C812.398 460.89 813.195 459.318 814.297 457.976C815.893 456.418 817.833 455.639 820.117 455.639C822.402 455.639 824.349 456.424 825.958 457.996C827.568 459.568 828.374 461.468 828.374 463.697C828.099 465.174 827.754 466.518 827.342 467.727L811.861 504.999C811.338 506.798 810.541 508.357 809.467 509.672C807.843 511.257 805.889 512.05 803.605 512.05C801.32 512.05 799.38 511.257 797.784 509.672C796.684 508.357 795.871 506.798 795.348 504.999L787.092 485.134Z" fill="white"/>
<path d="M866.121 494.421C869.463 494.421 872.321 493.213 874.694 490.801C877.066 488.387 878.252 485.48 878.252 482.08C878.252 478.68 877.066 475.773 874.694 473.36C872.321 470.947 869.463 469.741 866.121 469.741C862.777 469.741 859.92 470.947 857.548 473.36C855.174 475.773 853.988 478.68 853.988 482.08C853.988 485.48 855.174 488.387 857.548 490.801C859.92 493.213 862.777 494.421 866.121 494.421ZM837.813 482.08C837.813 474.127 840.576 467.341 846.103 461.719C851.631 456.098 858.303 453.287 866.121 453.287C873.939 453.287 880.611 456.098 886.138 461.719C891.664 467.341 894.428 474.127 894.428 482.08C894.428 490.033 891.664 496.819 886.138 502.441C880.611 508.063 873.939 510.873 866.121 510.873C861.699 510.873 857.655 509.982 853.988 508.2V527.327C853.988 529.604 853.2 531.543 851.623 533.147C850.047 534.751 848.138 535.553 845.901 535.553C843.663 535.553 841.756 534.751 840.178 533.147C838.602 531.543 837.813 529.604 837.813 527.327V482.08Z" fill="white"/>
<path d="M921.235 491.717C923.609 494.161 926.466 495.382 929.809 495.382C933.153 495.382 936.01 494.161 938.382 491.717C940.755 489.272 941.941 486.329 941.941 482.884C941.941 479.44 940.755 476.497 938.382 474.052C936.01 471.609 933.153 470.387 929.809 470.387C926.466 470.387 923.609 471.609 921.235 474.052C918.864 476.497 917.678 479.44 917.678 482.884C917.678 486.329 918.864 489.272 921.235 491.717ZM901.502 433.41C901.502 431.105 902.29 429.14 903.868 427.515C905.444 425.891 907.352 425.078 909.59 425.078C911.827 425.078 913.734 425.891 915.312 427.515C916.888 429.14 917.678 431.105 917.678 433.41V456.431C921.343 454.626 925.388 453.724 929.809 453.724C937.626 453.724 944.299 456.57 949.826 462.264C955.353 467.958 958.117 474.831 958.117 482.884C958.117 490.938 955.353 497.812 949.826 503.505C944.299 509.199 937.626 512.045 929.809 512.045C921.991 512.045 915.318 509.199 909.791 503.505C904.265 497.812 901.502 490.938 901.502 482.884V433.41Z" fill="white"/>
<path d="M995.86 495.932C999.204 495.932 1002.06 494.751 1004.43 492.387C1006.81 490.023 1007.99 487.175 1007.99 483.844C1007.99 480.514 1006.81 477.666 1004.43 475.302C1002.06 472.939 999.204 471.756 995.86 471.756C992.517 471.756 989.66 472.939 987.287 475.302C984.915 477.666 983.729 480.514 983.729 483.844C983.729 487.175 984.915 490.023 987.287 492.387C989.66 494.751 992.517 495.932 995.86 495.932ZM1009.49 508.666C1005.42 510.922 1000.87 512.05 995.86 512.05C988.042 512.05 981.369 509.296 975.842 503.79C970.317 498.283 967.553 491.635 967.553 483.844C967.553 476.055 970.249 469.406 975.641 463.899C981.032 458.392 987.772 455.639 995.86 455.639C1003.95 455.639 1010.69 458.325 1016.08 463.697C1021.47 469.07 1024.17 475.786 1024.17 483.844V503.991C1024.17 506.221 1023.38 508.121 1021.8 509.692C1020.22 511.264 1018.32 512.05 1016.08 512.05C1013.84 512.05 1011.94 511.257 1010.38 509.672C1010.03 509.351 1009.73 509.015 1009.49 508.666Z" fill="white"/>
<path d="M1050.12 480.052L1069.07 456.14C1070.66 454.529 1072.6 453.724 1074.89 453.724C1077.17 453.724 1079.12 454.536 1080.73 456.161C1082.34 457.785 1083.14 459.75 1083.14 462.055C1083.14 464.361 1082.34 466.318 1080.75 467.93L1068.65 482.884L1080.75 497.799C1082.34 499.438 1083.14 501.408 1083.14 503.715C1083.14 506.019 1082.34 507.984 1080.73 509.609C1079.12 511.234 1077.17 512.045 1074.89 512.045C1072.6 512.045 1070.66 511.226 1069.07 509.588L1058.37 496.008L1048.96 508.005C1048.63 508.561 1048.22 509.088 1047.72 509.588C1046.1 511.226 1044.15 512.045 1041.86 512.045C1039.58 512.045 1037.63 511.234 1036.02 509.609C1034.41 507.984 1033.6 506.019 1033.6 503.715V433.41C1033.6 431.105 1034.41 429.14 1036.02 427.515C1037.63 425.891 1039.58 425.078 1041.86 425.078C1044.15 425.078 1046.09 425.891 1047.7 427.515C1049.31 429.14 1050.12 431.105 1050.12 433.41V480.052Z" fill="white"/>
<path d="M1111.87 491.903C1112 492.064 1112.15 492.226 1112.31 492.387C1114.69 494.751 1117.54 495.932 1120.89 495.932H1133.02C1135.26 495.932 1137.16 496.718 1138.74 498.289C1140.32 499.861 1141.11 501.761 1141.11 503.991C1141.11 506.221 1140.32 508.121 1138.74 509.692C1137.16 511.264 1135.26 512.05 1133.02 512.05H1120.89C1113.07 512.05 1106.39 509.296 1100.87 503.79C1095.34 498.283 1092.58 491.635 1092.58 483.844C1092.58 476.055 1095.34 469.406 1100.87 463.899C1106.39 458.392 1113.07 455.639 1120.89 455.639C1128.7 455.639 1135.38 458.392 1140.9 463.899C1146.43 469.406 1149.19 476.055 1149.19 483.844C1149.19 486.074 1148.41 487.974 1146.83 489.545C1145.25 491.118 1143.34 491.903 1141.11 491.903H1111.87ZM1129.9 477.751C1129.77 477.59 1132.28 475.702 1129.9 473.338C1127.53 470.974 1124.23 469.791 1120.89 469.791C1117.54 469.791 1114.69 470.974 1112.31 473.338C1109.94 475.702 1112 477.59 1111.87 477.751H1129.9Z" fill="white"/>
<path d="M1164.78 461.682C1168.89 457.653 1175.04 455.639 1183.24 455.639C1190.06 455.639 1195.87 457.989 1200.68 462.69C1201.91 463.926 1202.98 465.202 1203.88 466.518C1205.17 467.995 1205.81 469.741 1205.81 471.756C1205.81 473.986 1205.01 475.886 1203.41 477.457C1201.81 479.029 1199.87 479.815 1197.6 479.815C1195.33 479.815 1193.41 479.022 1191.82 477.437L1189.07 474.093C1187.46 472.534 1185.51 471.756 1183.24 471.756C1180.98 471.756 1179.04 472.542 1177.44 474.113C1175.84 475.685 1175.04 477.585 1175.04 479.815V503.991C1175.04 506.221 1174.24 508.121 1172.64 509.692C1171.04 511.264 1169.1 512.05 1166.83 512.05C1164.56 512.05 1162.63 511.264 1161.03 509.692C1159.43 508.121 1158.63 506.221 1158.63 503.991V479.815C1158.63 471.756 1160.68 465.713 1164.78 461.682Z" fill="white"/>
<path d="M1257.7 461.513C1257.7 463.79 1257.36 465.503 1256.67 466.655L1229.84 531.44H1229.8C1229.44 532.044 1229 532.606 1228.48 533.127C1226.85 534.745 1224.9 535.553 1222.61 535.553C1220.33 535.553 1218.38 534.751 1216.77 533.147C1215.16 531.543 1214.36 529.604 1214.36 527.327C1214.36 525.818 1214.72 524.448 1215.43 523.214H1215.39L1224.02 502.071L1209.2 465.626C1208.78 464.394 1208.44 463.022 1208.16 461.513C1208.16 459.238 1208.97 457.298 1210.58 455.693C1212.19 454.089 1214.14 453.287 1216.42 453.287C1218.71 453.287 1220.66 454.082 1222.28 455.673C1223.36 457.044 1224.14 458.648 1224.64 460.485H1224.68L1232.93 480.024L1234.75 475.664L1241.19 460.485H1241.23C1241.73 458.648 1242.53 457.044 1243.63 455.673C1245.22 454.082 1247.16 453.287 1249.45 453.287C1251.73 453.287 1253.68 454.089 1255.29 455.693C1256.9 457.298 1257.7 459.238 1257.7 461.513Z" fill="white"/>
<path fill-rule="evenodd" clip-rule="evenodd" d="M550.291 391.939C581.895 391.939 609.44 409.227 623.893 434.814C627.391 434.215 630.988 433.904 634.658 433.904C669.605 433.904 697.933 462.086 697.933 496.851C697.933 531.269 670.168 559.235 635.704 559.79L634.658 559.798H629.649V564.258C629.649 570.775 624.337 576.06 617.785 576.06H546.6C540.048 576.06 534.736 570.775 534.736 564.258L534.738 558.375C495.573 551.113 465.925 516.936 465.925 475.869C465.925 429.516 503.697 391.939 550.291 391.939ZM514.527 440.29C513.567 441.246 513.178 442.621 513.483 443.921L513.582 444.274L528.38 488.49C528.95 490.088 530.492 491.135 532.192 491.079C533.778 491.053 535.176 490.077 535.757 488.632L535.867 488.316L541.185 470.684C541.713 468.95 543.016 467.568 544.7 466.926L545.094 466.791L562.805 461.498C564.431 461.008 565.553 459.529 565.582 457.839C565.613 456.262 564.686 454.834 563.256 454.205L562.943 454.083L518.528 439.35C517.123 438.883 515.574 439.247 514.527 440.29Z" fill="white"/>
<path d="M774.276 485.316L764.699 508.359C764.092 510.446 763.167 512.255 761.922 513.78C760.037 515.619 757.771 516.539 755.121 516.539C752.47 516.539 750.22 515.619 748.368 513.78C747.092 512.255 746.149 510.446 745.543 508.359L727.585 465.124C727.105 463.721 726.707 462.163 726.387 460.449C726.387 457.864 727.321 455.659 729.189 453.836C731.057 452.013 733.315 451.102 735.965 451.102C738.615 451.102 740.881 452.005 742.766 453.812C744.011 455.37 744.92 457.193 745.496 459.281H745.543L755.121 481.483L764.699 459.281H764.747C764.747 459.251 764.762 459.203 764.794 459.14C765.05 457.115 765.96 455.339 767.524 453.812C769.376 452.005 771.626 451.102 774.276 451.102C776.927 451.102 779.113 451.958 780.837 453.672C782.529 455.386 783.503 457.209 783.758 459.14C783.791 459.203 783.807 459.251 783.807 459.281H783.854L793.432 481.483L803.01 459.281H803.059C803.633 457.193 804.558 455.37 805.836 453.812C807.688 452.005 809.938 451.102 812.588 451.102C815.238 451.102 817.498 452.013 819.364 453.836C821.232 455.659 822.166 457.864 822.166 460.449C821.848 462.163 821.447 463.721 820.97 465.124L803.01 508.359C802.404 510.446 801.479 512.255 800.233 513.78C798.349 515.619 796.083 516.539 793.432 516.539C790.782 516.539 788.532 515.619 786.68 513.78C785.404 512.255 784.461 510.446 783.854 508.359L774.276 485.316Z" fill="#0772CE"/>
<path d="M865.956 496.088C869.833 496.088 873.148 494.688 875.901 491.889C878.652 489.089 880.028 485.717 880.028 481.773C880.028 477.829 878.652 474.457 875.901 471.657C873.148 468.859 869.833 467.46 865.956 467.46C862.076 467.46 858.762 468.859 856.01 471.657C853.257 474.457 851.881 477.829 851.881 481.773C851.881 485.717 853.257 489.089 856.01 491.889C858.762 494.688 862.076 496.088 865.956 496.088ZM833.116 481.773C833.116 472.548 836.322 464.676 842.734 458.154C849.146 451.634 856.886 448.373 865.956 448.373C875.025 448.373 882.765 451.634 889.177 458.154C895.587 464.676 898.793 472.548 898.793 481.773C898.793 490.999 895.587 498.87 889.177 505.392C882.765 511.913 875.025 515.173 865.956 515.173C860.825 515.173 856.135 514.14 851.881 512.073V534.26C851.881 536.9 850.967 539.15 849.137 541.011C847.308 542.872 845.094 543.802 842.499 543.802C839.903 543.802 837.691 542.872 835.86 541.011C834.032 539.15 833.116 536.9 833.116 534.26V481.773Z" fill="#0772CE"/>
<path d="M929.892 492.952C932.645 495.786 935.96 497.203 939.837 497.203C943.717 497.203 947.031 495.786 949.783 492.952C952.536 490.115 953.912 486.702 953.912 482.705C953.912 478.71 952.536 475.297 949.783 472.461C947.031 469.626 943.717 468.209 939.837 468.209C935.96 468.209 932.645 469.626 929.892 472.461C927.14 475.297 925.765 478.71 925.765 482.705C925.765 486.702 927.14 490.115 929.892 492.952ZM907 425.315C907 422.641 907.914 420.362 909.744 418.477C911.572 416.593 913.786 415.65 916.382 415.65C918.978 415.65 921.19 416.593 923.02 418.477C924.849 420.362 925.765 422.641 925.765 425.315V452.02C930.017 449.926 934.709 448.879 939.837 448.879C948.907 448.879 956.647 452.181 963.059 458.786C969.471 465.391 972.677 473.364 972.677 482.705C972.677 492.048 969.471 500.021 963.059 506.626C956.647 513.231 948.907 516.532 939.837 516.532C930.768 516.532 923.028 513.231 916.616 506.626C910.206 500.021 907 492.048 907 482.705V425.315Z" fill="#0772CE"/>
<path d="M1016.46 497.842C1020.34 497.842 1023.65 496.471 1026.41 493.729C1029.16 490.987 1030.54 487.684 1030.54 483.819C1030.54 479.957 1029.16 476.654 1026.41 473.912C1023.65 471.169 1020.34 469.797 1016.46 469.797C1012.58 469.797 1009.27 471.169 1006.52 473.912C1003.76 476.654 1002.39 479.957 1002.39 483.819C1002.39 487.684 1003.76 490.987 1006.52 493.729C1009.27 496.471 1012.58 497.842 1016.46 497.842ZM1032.27 512.613C1027.55 515.23 1022.28 516.539 1016.46 516.539C1007.39 516.539 999.651 513.344 993.239 506.957C986.829 500.569 983.623 492.857 983.623 483.819C983.623 474.784 986.751 467.072 993.006 460.684C999.26 454.295 1007.08 451.102 1016.46 451.102C1025.84 451.102 1033.66 454.217 1039.92 460.449C1046.17 466.682 1049.3 474.473 1049.3 483.819V507.19C1049.3 509.777 1048.38 511.981 1046.56 513.804C1044.73 515.627 1042.51 516.539 1039.92 516.539C1037.32 516.539 1035.12 515.619 1033.3 513.78C1032.9 513.408 1032.55 513.018 1032.27 512.613Z" fill="#0772CE"/>
<path d="M1079.4 479.42L1101.38 451.682C1103.24 449.813 1105.49 448.879 1108.14 448.879C1110.79 448.879 1113.04 449.821 1114.91 451.706C1116.78 453.591 1117.71 455.87 1117.71 458.543C1117.71 461.219 1116.79 463.488 1114.94 465.358L1100.9 482.705L1114.94 500.007C1116.79 501.907 1117.71 504.193 1117.71 506.869C1117.71 509.542 1116.78 511.821 1114.91 513.707C1113.04 515.591 1110.79 516.532 1108.14 516.532C1105.49 516.532 1103.24 515.582 1101.38 513.681L1088.98 497.929L1078.06 511.846C1077.68 512.49 1077.2 513.102 1076.63 513.681C1074.74 515.582 1072.48 516.532 1069.83 516.532C1067.17 516.532 1064.92 515.591 1063.05 513.707C1061.18 511.821 1060.25 509.542 1060.25 506.869V425.315C1060.25 422.641 1061.18 420.362 1063.05 418.477C1064.92 416.593 1067.17 415.65 1069.83 415.65C1072.48 415.65 1074.73 416.593 1076.6 418.477C1078.47 420.362 1079.4 422.641 1079.4 425.315V479.42Z" fill="#0772CE"/>
<path d="M1151.04 493.168C1151.19 493.355 1151.37 493.543 1151.55 493.729C1154.31 496.471 1157.62 497.842 1161.5 497.842H1175.57C1178.17 497.842 1180.38 498.754 1182.21 500.576C1184.04 502.399 1184.96 504.604 1184.96 507.19C1184.96 509.777 1184.04 511.981 1182.21 513.804C1180.38 515.627 1178.17 516.539 1175.57 516.539H1161.5C1152.43 516.539 1144.69 513.344 1138.28 506.957C1131.87 500.569 1128.66 492.857 1128.66 483.819C1128.66 474.784 1131.87 467.072 1138.28 460.684C1144.69 454.295 1152.43 451.102 1161.5 451.102C1170.57 451.102 1178.31 454.295 1184.72 460.684C1191.13 467.072 1194.34 474.784 1194.34 483.819C1194.34 486.406 1193.42 488.611 1191.59 490.433C1189.76 492.258 1187.55 493.168 1184.96 493.168H1151.04ZM1171.96 476.751C1171.8 476.565 1174.71 474.375 1171.96 471.633C1169.21 468.891 1165.38 467.519 1161.5 467.519C1157.62 467.519 1154.31 468.891 1151.55 471.633C1148.8 474.375 1151.19 476.565 1151.04 476.751H1171.96Z" fill="#0772CE"/>
<path d="M1212.42 458.112C1217.18 453.438 1224.32 451.102 1233.84 451.102C1241.74 451.102 1248.48 453.828 1254.07 459.281C1255.5 460.715 1256.73 462.195 1257.78 463.721C1259.27 465.435 1260.02 467.461 1260.02 469.797C1260.02 472.384 1259.09 474.588 1257.23 476.411C1255.38 478.234 1253.13 479.146 1250.5 479.146C1247.86 479.146 1245.63 478.227 1243.79 476.388L1240.6 472.509C1238.73 470.701 1236.47 469.797 1233.84 469.797C1231.21 469.797 1228.96 470.71 1227.11 472.532C1225.25 474.355 1224.32 476.56 1224.32 479.146V507.19C1224.32 509.777 1223.39 511.981 1221.54 513.804C1219.68 515.627 1217.44 516.539 1214.8 516.539C1212.17 516.539 1209.92 515.627 1208.07 513.804C1206.21 511.981 1205.28 509.777 1205.28 507.19V479.146C1205.28 469.797 1207.67 462.787 1212.42 458.112Z" fill="#0772CE"/>
<path d="M1320.22 457.916C1320.22 460.556 1319.82 462.544 1319.02 463.879L1287.89 539.031H1287.84C1287.43 539.731 1286.92 540.383 1286.31 540.987C1284.43 542.864 1282.16 543.802 1279.51 543.802C1276.86 543.802 1274.6 542.872 1272.73 541.011C1270.87 539.15 1269.93 536.9 1269.93 534.26C1269.93 532.509 1270.35 530.92 1271.18 529.488H1271.13L1281.14 504.963L1263.95 462.687C1263.47 461.257 1263.07 459.666 1262.75 457.916C1262.75 455.277 1263.68 453.025 1265.55 451.164C1267.42 449.303 1269.68 448.373 1272.33 448.373C1274.98 448.373 1277.24 449.296 1279.13 451.141C1280.37 452.731 1281.28 454.592 1281.86 456.723H1281.9L1291.48 479.388L1293.59 474.33L1301.06 456.723H1301.11C1301.68 454.592 1302.61 452.731 1303.89 451.141C1305.74 449.296 1307.99 448.373 1310.64 448.373C1313.29 448.373 1315.55 449.303 1317.41 451.164C1319.28 453.025 1320.22 455.277 1320.22 457.916Z" fill="#0772CE"/>
<path fill-rule="evenodd" clip-rule="evenodd" d="M499.571 377.211C536.234 377.211 568.188 397.264 584.955 426.945C589.013 426.251 593.186 425.89 597.443 425.89C637.984 425.89 670.846 458.581 670.846 498.908C670.846 538.833 638.637 571.274 598.656 571.918L597.443 571.927H591.633V577.1C591.633 584.66 585.471 590.791 577.869 590.791H495.29C487.689 590.791 481.527 584.66 481.527 577.1L481.529 570.276C436.096 561.853 401.701 522.206 401.701 474.569C401.701 420.8 445.52 377.211 499.571 377.211ZM458.083 433.298C456.969 434.406 456.519 436.002 456.872 437.51L456.988 437.919L474.154 489.21C474.815 491.064 476.603 492.278 478.576 492.213C480.416 492.182 482.038 491.051 482.711 489.375L482.84 489.007L489.009 468.554C489.621 466.543 491.132 464.94 493.085 464.196L493.543 464.038L514.09 457.899C515.976 457.331 517.277 455.615 517.31 453.654C517.346 451.825 516.271 450.169 514.613 449.439L514.249 449.297L462.724 432.207C461.095 431.666 459.297 432.088 458.083 433.298Z" fill="#0772CE"/>
</g>
<defs>
<clipPath id="clip0_1086_26250">
<rect width="920" height="214" fill="white" transform="translate(401 377)"/>
</clipPath>
</defs>
</svg>
